Coordinates
version=1
nRows=11
nColumns=40
inDegrees=yes

Units are S.I. units (second, meters, Newtons, ...)
If the header above contains a line with 'inDegrees', this indicates whether rotational values are in degrees (yes) or radians (no).

endheader
time	pelvis_tilt	pelvis_list	pelvis_rotation	pelvis_tx	pelvis_ty	pelvis_tz	hip_flexion_r	hip_adduction_r	hip_rotation_r	knee_angle_r	knee_angle_r_beta	ankle_angle_r	subtalar_angle_r	mtp_angle_r	hip_flexion_l	hip_adduction_l	hip_rotation_l	knee_angle_l	knee_angle_l_beta	ankle_angle_l	subtalar_angle_l	mtp_angle_l	lumbar_extension	lumbar_bending	lumbar_rotation	arm_flex_r	arm_add_r	arm_rot_r	elbow_flex_r	pro_sup_r	wrist_flex_r	wrist_dev_r	arm_flex_l	arm_add_l	arm_rot_l	elbow_flex_l	pro_sup_l	wrist_flex_l	wrist_dev_l
      0.88611111	     31.66363766	    -35.26652326	    -89.96155861	      0.32675624	      1.13632587	      0.13803261	    -23.13193266	    -49.55093566	     -8.31952267	     25.09488880	      0.43798843	      9.91676013	      0.00000000	      0.00000000	     96.49679256	     29.89561962	    -39.50522315	     90.11783696	      1.57285297	    -10.80850608	      0.00000000	      0.00000000	    -44.69027103	    -13.39624133	    -28.17327886	     36.07533013	    -28.95009011	     28.62852257	    112.47373770	     84.23221414	      0.00000000	      0.00000000	     60.08278136	    -16.09788032	     59.06690600	     88.91666850	     49.61638935	      0.00000000	      0.00000000
      0.88888889	     31.76209284	    -35.27505841	    -89.96242467	      0.32735352	      1.13571054	      0.13761034	    -23.00798005	    -49.64182481	     -8.00661680	     25.14689735	      0.43889616	      9.99551588	      0.00000000	      0.00000000	     95.86338332	     29.90502698	    -39.35685028	     89.67630779	      1.56514683	    -11.04053737	      0.00000000	      0.00000000	    -44.76050135	    -13.45095208	    -28.23671211	     36.15809712	    -28.70370221	     28.58307460	    112.02601219	     86.39666917	      0.00000000	      0.00000000	     60.15933077	    -16.13870418	     59.39377072	     88.97143935	     49.42793206	      0.00000000	      0.00000000
      0.89166667	     31.82832374	    -35.08451780	    -89.96395486	      0.32857071	      1.13441438	      0.13697848	    -22.53665894	    -49.72840703	     -7.56474693	     25.32045602	      0.44192533	     10.20730761	      0.00000000	      0.00000000	     95.10371124	     29.91813772	    -39.06387373	     88.97818793	      1.55296234	    -11.46161536	      0.00000000	      0.00000000	    -44.66098450	    -13.43673355	    -28.27042483	     36.22958596	    -28.38277415	     28.90993278	    111.72346079	     86.42939498	      0.00000000	      0.00000000	     60.30165702	    -16.14021205	     59.90032429	     88.91009279	     49.43394515	      0.00000000	      0.00000000
      0.89444444	     31.83358429	    -34.84950777	    -89.96578454	      0.32986548	      1.13305231	      0.13629536	    -22.04798571	    -49.77008761	     -7.24729129	     25.46626922	      0.44447025	     10.41306939	      0.00000000	      0.00000000	     94.33341885	     29.92973345	    -38.70928142	     88.25532864	      1.54034607	    -11.84550168	      0.00000000	      0.00000000	    -44.53452000	    -13.34739533	    -28.28642315	     36.26816757	    -28.08188740	     29.21687494	    111.47963160	     86.45709121	      0.00000000	      0.00000000	     60.42762990	    -16.11967642	     60.36114482	     88.89089400	     49.43531424	      0.00000000	      0.00000000
      0.89722222	     31.84164458	    -34.58335032	    -89.96747185	      0.33110012	      1.13150774	      0.13545712	    -21.35631445	    -49.80625693	     -6.69242050	     25.82564355	      0.45074251	     10.70590291	      0.00000000	      0.00000000	     93.62422382	     29.93677372	    -38.31690170	     87.51749154	      1.52746838	    -12.48436613	      0.00000000	      0.00000000	    -44.36334228	    -13.28764122	    -28.32769018	     36.42540135	    -27.74691714	     29.66756001	    111.06538057	     86.49097781	      0.00000000	      0.00000000	     60.61254146	    -16.15959618	     60.93935764	     88.79893108	     49.39249928	      0.00000000	      0.00000000
      0.90000000	     31.77224490	    -33.98897959	    -89.96924513	      0.33280566	      1.12944556	      0.13494588	    -20.28567026	    -49.82488218	     -6.26287183	     26.24481544	      0.45805844	     11.07002019	      0.00000000	      0.00000000	     93.25431941	     29.94347918	    -37.87442281	     86.75304610	      1.51412629	    -13.21171789	      0.00000000	      0.00000000	    -43.84727546	    -13.12630113	    -28.38949592	     36.54571127	    -27.42647594	     30.11979980	    110.70081704	     86.52451036	      0.00000000	      0.00000000	     60.62881004	    -16.22751886	     61.32944322	     88.88591911	     49.28683196	      0.00000000	      0.00000000
      0.90277778	     31.74867414	    -33.84205010	    -89.97022532	      0.33359460	      1.12843122	      0.13493093	    -20.10223573	    -49.83187325	     -6.22141824	     26.24844454	      0.45812178	     11.14313105	      0.00000000	      0.00000000	     92.77072249	     29.94794160	    -37.61583843	     86.37284480	      1.50749053	    -13.30301981	      0.00000000	      0.00000000	    -43.72583196	    -13.04311802	    -28.35423049	     36.44993021	    -27.26353080	     30.28176929	    110.64671851	     86.54486147	      0.00000000	      0.00000000	     60.59176561	    -16.16871334	     61.53498168	     88.91524451	     49.29659192	      0.00000000	      0.00000000
      0.90555556	     31.74703759	    -33.60992736	    -89.97166112	      0.33491878	      1.12696927	      0.13342409	    -19.31669342	    -49.84891243	     -5.54291371	     26.68545979	      0.46574914	     11.43621315	      0.00000000	      0.00000000	     91.90127218	     29.95198562	    -37.18413998	     85.42811760	      1.49100193	    -13.94160375	      0.00000000	      0.00000000	    -43.66774838	    -12.95326309	    -28.43610390	     36.73245611	    -26.91133158	     30.76123472	    110.15048138	     86.57274157	      0.00000000	      0.00000000	     60.99029360	    -16.26789439	     62.32393196	     88.75432184	     49.26969542	      0.00000000	      0.00000000
      0.90833333	     31.69186746	    -33.23184587	    -89.97306025	      0.33642589	      1.12517375	      0.13257981	    -18.50588637	    -49.85707638	     -5.10907465	     27.05264516	      0.47215773	     11.72090750	      0.00000000	      0.00000000	     91.26464210	     29.95587669	    -36.72648078	     84.60991191	      1.47672154	    -14.53792514	      0.00000000	      0.00000000	    -43.40252178	    -12.80093436	    -28.47557105	     36.88167149	    -26.60017541	     31.20166355	    109.78286188	     86.63551443	      0.00000000	      0.00000000	     61.17332575	    -16.30439423	     62.86275383	     88.72783765	     49.25644240	      0.00000000	      0.00000000
      0.91111111	     31.63299425	    -32.92819467	    -89.97425265	      0.33792516	      1.12356628	      0.13199914	    -17.99650954	    -49.86482241	     -4.97189681	     27.16391188	      0.47409970	     11.91014694	      0.00000000	      0.00000000	     90.49263430	     29.95979589	    -36.30761343	     83.77531805	      1.46215513	    -14.81246814	      0.00000000	      0.00000000	    -43.19286283	    -12.61860425	    -28.47145812	     36.90426850	    -26.37373778	     31.47259907	    109.60507308	     86.65297874	      0.00000000	      0.00000000	     61.25280700	    -16.29656846	     63.26369650	     88.70791709	     49.26691785	      0.00000000	      0.00000000
      0.91388889	     31.54168292	    -32.23914146	    -89.97524823	      0.33947960	      1.12149702	      0.13154633	    -16.63863708	    -49.86627027	     -4.35882560	     27.84735618	      0.48602805	     12.29090147	      0.00000000	      0.00000000	     90.57810081	     29.96092300	    -35.93781164	     83.18254736	      1.45180933	    -15.64612442	      0.00000000	      0.00000000	    -42.55307110	    -12.46789843	    -28.52734887	     37.07478251	    -26.14503878	     31.94538695	    109.22598310	     86.64061160	      0.00000000	      0.00000000	     61.37350883	    -16.36918843	     63.70739091	     88.65339848	     49.23400622	      0.00000000	      0.00000000
